<svg xmlns="http://www.w3.org/2000/svg" xmlns:xlink="http://www.w3.org/1999/xlink" width="50" height="25" viewBox="0 0 50 25">
  <defs>
    <clipPath id="clip-path">
      <rect id="Ret칙ngulo_34" data-name="Ret칙ngulo 34" width="50" height="25" transform="translate(843 602)" fill="#fff"/>
    </clipPath>
  </defs>
  <g id="Grupo_32" data-name="Grupo 32" transform="translate(-847 -627)">
    <g id="Grupo_de_m치scara_1" data-name="Grupo de m치scara 1" transform="translate(1740 1254) rotate(180)" clip-path="url(#clip-path)">
      <circle id="Elipse_3" data-name="Elipse 3" cx="25" cy="25" r="25" transform="translate(843 602)" fill="#6ad8a1"/>
    </g>
    <g id="down-arrow" transform="translate(880 744.698) rotate(180)">
      <g id="Grupo_31" data-name="Grupo 31" transform="translate(0 100.698)">
        <path id="Caminho_2" data-name="Caminho 2" d="M15.744,101.5l-.524-.536a.868.868,0,0,0-1.238,0L8,107.039l-5.985-6.081a.868.868,0,0,0-1.238,0l-.524.533a.9.9,0,0,0,0,1.258l7.126,7.267A.888.888,0,0,0,8,110.3h0a.888.888,0,0,0,.619-.285l7.12-7.247a.906.906,0,0,0,.256-.635A.9.9,0,0,0,15.744,101.5Z" transform="translate(0 -100.698)"/>
      </g>
    </g>
  </g>
</svg>
